<?xml version="1.0" encoding="utf-8"?>
<?xml-stylesheet type="text/xsl" href="rss1.xsl"?>
<rss version="2.0" xmlns:atom="http://www.w3.org/2005/Atom" xmlns:content="http://purl.org/rss/1.0/modules/content/" xmlns:dc="http://purl.org/dc/elements/1.1/" xmlns:media="http://search.yahoo.com/mrss/">
<channel>
 <title>Getty</title>
 <link>http://www.gettyimg.com/</link>
 <atom:link href="http://www.gettyimg.com/" rel="self" type="application/rss+xml" />

 
                <item>
                <title><![CDATA[【Requests】[REQ AUD] - Debby Friday - Runnin 2021]]></title>
                <link><![CDATA[https://sharemania.us/threads/debby-friday-runnin-2021.235952/]]></link>
                <description><![CDATA[<article>
<blockquote class="messageText SelectQuoteContainer ugc baseHtml">
Hello, would like to request "Debby Friday - Runnin" 2021 single in Flac format. Also if available her "Bitchpunk" EP from 2018, or anything in general by Debby Friday. Thank you!
<div class="messageTextEndMarker">&nbsp;</div>
</blockquote>
</article>]]></description>
                <author><![CDATA[kospan]]></author>
                </item>

                
                <item>
                <title><![CDATA[【HD Live Performances】WEB-RiP - BLACKPINK BORN PINK WORLD TOUR 2023]]></title>
                <link><![CDATA[https://sharemania.us/threads/blackpink-born-pink-world-tour-2023.235953/]]></link>
                <description><![CDATA[<article>
<blockquote class="messageText SelectQuoteContainer ugc baseHtml">
<img src="https://media.gq-magazine.co.uk/photos/638789fdf7c856d3214e7df6/16:9/w_2240,c_limit/NO1_4461.jpg" class="bbCodeImage LbImage" alt="[​IMG]" data-url="https://media.gq-magazine.co.uk/photos/638789fdf7c856d3214e7df6/16:9/w_2240,c_limit/NO1_4461.jpg" style=""> <img src="https://onecms-res.cloudinary.com/image/upload/s--kz9M1qQz--/c_crop,h_1075,w_1433,x_52,y_1/c_fill,g_auto,h_622,w_830/f_auto,q_auto/v1/mediacorp/cna/image/2023/05/17/bp_singapore_01_credits_to_yg_entertainment.jpg?itok=kLgTnUbQ" class="bbCodeImage LbImage" alt="[​IMG]" data-url="https://onecms-res.cloudinary.com/image/upload/s--kz9M1qQz--/c_crop,h_1075,w_1433,x_52,y_1/c_fill,g_auto,h_622,w_830/f_auto,q_auto/v1/mediacorp/cna/image/2023/05/17/bp_singapore_01_credits_to_yg_entertainment.jpg?itok=kLgTnUbQ" style=""> <img src="https://riffmagazine.com/wp-content/uploads/2023/08/19-e1693016724396.jpg" class="bbCodeImage LbImage" alt="[​IMG]" data-url="https://riffmagazine.com/wp-content/uploads/2023/08/19-e1693016724396.jpg" style=""> <img src="https://riffmagazine.com/wp-content/uploads/2023/08/17-e1693016661543.jpg" class="bbCodeImage LbImage" alt="[​IMG]" data-url="https://riffmagazine.com/wp-content/uploads/2023/08/17-e1693016661543.jpg" style=""> <img src="https://scontent.fhan14-1.fna.fbcdn.net/v/t1.15752-9/419724698_753753046804190_9035811085776456440_n.png?_nc_cat=107&amp;ccb=1-7&amp;_nc_sid=8cd0a2&amp;_nc_eui2=AeHmi362UFFWvANdbiosye77lMJAXDsSc0eUwkBcOxJzR5PqFokSAs4UEY4AHRJE2g8RC3mXSYuR8XPggd00U731&amp;_nc_ohc=HilyxBkiy3kAX-A4qG9&amp;_nc_ht=scontent.fhan14-1.fna&amp;oh=03_AdTL2WvMDU07GiYj5J34CsNQCnaKcP6nHxhsTAsk3QQOJg&amp;oe=65CF02BD" class="bbCodeImage LbImage" alt="[​IMG]" data-url="https://scontent.fhan14-1.fna.fbcdn.net/v/t1.15752-9/419724698_753753046804190_9035811085776456440_n.png?_nc_cat=107&amp;ccb=1-7&amp;_nc_sid=8cd0a2&amp;_nc_eui2=AeHmi362UFFWvANdbiosye77lMJAXDsSc0eUwkBcOxJzR5PqFokSAs4UEY4AHRJE2g8RC3mXSYuR8XPggd00U731&amp;_nc_ohc=HilyxBkiy3kAX-A4qG9&amp;_nc_ht=scontent.fhan14-1.fna&amp;oh=03_AdTL2WvMDU07GiYj5J34CsNQCnaKcP6nHxhsTAsk3QQOJg&amp;oe=65CF02BD" style=""> <img src="https://scontent.fhan14-4.fna.fbcdn.net/v/t1.15752-9/419630718_1358847254800647_4124149196828395538_n.png?_nc_cat=102&amp;ccb=1-7&amp;_nc_sid=8cd0a2&amp;_nc_eui2=AeHlcpC_ub2SQSrOgxxfYThO1uVTUwItMePW5VNTAi0x418jZDUg2UKTBsWkRAKF4nL7ivClQ2HHXpTogi5FdmEC&amp;_nc_ohc=CmatliH1CUsAX_FxaDK&amp;_nc_ht=scontent.fhan14-4.fna&amp;oh=03_AdQG6NtxFWEnLPyTFxsdxr_SscpMKmnEqlHuQcKkmAeATg&amp;oe=65CF1544" class="bbCodeImage LbImage" alt="[​IMG]" data-url="https://scontent.fhan14-4.fna.fbcdn.net/v/t1.15752-9/419630718_1358847254800647_4124149196828395538_n.png?_nc_cat=102&amp;ccb=1-7&amp;_nc_sid=8cd0a2&amp;_nc_eui2=AeHlcpC_ub2SQSrOgxxfYThO1uVTUwItMePW5VNTAi0x418jZDUg2UKTBsWkRAKF4nL7ivClQ2HHXpTogi5FdmEC&amp;_nc_ohc=CmatliH1CUsAX_FxaDK&amp;_nc_ht=scontent.fhan14-4.fna&amp;oh=03_AdQG6NtxFWEnLPyTFxsdxr_SscpMKmnEqlHuQcKkmAeATg&amp;oe=65CF1544" style=""> <img src="https://scontent.fhan14-2.fna.fbcdn.net/v/t1.15752-9/419681393_358430243640060_5161915136245759176_n.png?_nc_cat=106&amp;ccb=1-7&amp;_nc_sid=8cd0a2&amp;_nc_eui2=AeH6HdOre1BfsQy1HByzeZL4jsBmTIWfehOOwGZMhZ96E28wJ89A-P7xhCTJxR5iOumxFE-uA7QXTsP9DIGtmp6T&amp;_nc_ohc=6FKmG8RJTlMAX-8-A7O&amp;_nc_ht=scontent.fhan14-2.fna&amp;oh=03_AdQqDtFCC-Z6kXtTd9-qZVmy0puE_bAJOKorpo9ucVl8mA&amp;oe=65CEEA8B" class="bbCodeImage LbImage" alt="[​IMG]" data-url="https://scontent.fhan14-2.fna.fbcdn.net/v/t1.15752-9/419681393_358430243640060_5161915136245759176_n.png?_nc_cat=106&amp;ccb=1-7&amp;_nc_sid=8cd0a2&amp;_nc_eui2=AeH6HdOre1BfsQy1HByzeZL4jsBmTIWfehOOwGZMhZ96E28wJ89A-P7xhCTJxR5iOumxFE-uA7QXTsP9DIGtmp6T&amp;_nc_ohc=6FKmG8RJTlMAX-8-A7O&amp;_nc_ht=scontent.fhan14-2.fna&amp;oh=03_AdQqDtFCC-Z6kXtTd9-qZVmy0puE_bAJOKorpo9ucVl8mA&amp;oe=65CEEA8B" style="">
<div class="ToggleTriggerAnchor bbCodeSpoilerContainer">
<button type="button" class="button bbCodeSpoilerButton ToggleTrigger Tooltip JsOnly" data-target="> .SpoilerTarget"><span>Spoiler: <span class="SpoilerTitle">TOKYO DOME</span></span></button>
<div class="SpoilerTarget bbCodeSpoilerText">Format : MPEG-4<br>
Format profile : Base Media<br>
Codec ID : isom (isom/iso2/avc1/mp41)<br>
File size : 3.06 GiB<br>
Duration : 1 h 45 min<br>
Overall bit rate : 4 143 kb/s<br>
Collection : BLACKPINK WORLD TOUR [BORN PINK] JAPAN<br>
Track name : BLACKPINK WORLD TOUR [BORN PINK] JAPAN<br>
Recorded date : 2023<br>
Writing application : Lavf60.3.100<br>
Cover : Yes<br>
Video<br>
ID : 1<br>
Format : AVC<br>
Format/Info : Advanced Video Codec<br>
Format profile : Main@L4<br>
Format settings, CABAC : Yes<br>
Format settings, RefFrames : 2 frames<br>
Codec ID : avc1<br>
Codec ID/Info : Advanced Video Coding<br>
Duration : 1 h 45 min<br>
Bit rate : 4 003 kb/s<br>
Width : 1 920 pixels<br>
Height : 1 080 pixels<br>
Display aspect ratio : 16:9<br>
Frame rate mode : Constant<br>
Frame rate : 29.970 (29970/1000) FPS<br>
Color space : YUV<br>
Chroma subsampling : 4:2:0<br>
Bit depth : 8 bits<br>
Scan type : Progressive<br>
Bits/(Pixel*Frame) : 0.064<br>
Stream size : 2.96 GiB (97%)<br>
Writing library : x264 core 148 r2665kMod a01e339<br>
Encoding settings : cabac=1 / ref=2 / deblock=1:1:1 / analyse=0x1:0x111 / me=tesa / subme=11 / psy=1 / fade_compensate=0.00 / psy_rd=0.40:0.10 / mixed_ref=1 / me_range=48 / chroma_me=1 / trellis=2 / 8x8dct=0 / cqm=0 / deadzone=21,11 / fast_pskip=1 / chroma_qp_offset=-3 / threads=12 / lookahead_threads=1 / sliced_threads=0 / nr=0 / decimate=1 / interlaced=0 / bluray_compat=0 / constrained_intra=0 / fgo=0 / bframes=2 / b_pyramid=0 / b_adapt=2 / b_bias=0 / direct=3 / weightb=1 / open_gop=0 / weightp=2 / keyint=60 / keyint_min=31 / scenecut=0 / intra_refresh=0 / rc_lookahead=60 / rc=2pass / mbtree=1 / bitrate=4020 / ratetol=1.0 / qcomp=0.80 / qpmin=10 / qpmax=69 / qpstep=15 / cplxblur=20.0 / qblur=0.5 / vbv_maxrate=8050 / vbv_bufsize=8050 / nal_hrd=none / filler=0 / ip_ratio=1.40 / aq=2:0.60<br>
Audio<br>
ID : 3<br>
Format : AAC<br>
Format/Info : Advanced Audio Codec<br>
Format profile : LC<br>
Codec ID : 40<br>
Duration : 1 h 45 min<br>
Bit rate mode : Constant<br>
Bit rate : 125 kb/s<br>
Channel(s) : 2 channels<br>
Channel positions : Front: L R<br>
Sampling rate : 48.0 kHz<br>
Frame rate : 46.875 FPS (1024 SPF)<br>
Compression mode : Lossy<br>
Stream size : 94.8 MiB (3%)<br>
Language : Japanese<br>
Default : Yes<br>
Alternate group : 1</div>
</div><br>
<div class="ToggleTriggerAnchor bbCodeSpoilerContainer">
<button type="button" class="button bbCodeSpoilerButton ToggleTrigger Tooltip JsOnly" data-target="> .SpoilerTarget"><span>Spoiler: <span class="SpoilerTitle">OSAKA</span></span></button>
<div class="SpoilerTarget bbCodeSpoilerText">Format : MPEG-4<br>
Format profile : Base Media<br>
Codec ID : isom (isom/iso2/avc1/mp41)<br>
File size : 8.64 GiB<br>
Duration : 2 h 1 min<br>
Overall bit rate mode : Variable<br>
Overall bit rate : 10.2 Mb/s<br>
Movie name : 230604 BLACKPINK WORLD TOUR [BORN PINK] JAPAN KYOCERA DOME OSAKA 1080p.WEB-DL.H264.AAC-XezonN<br>
Tagged date : UTC 2023-06-04 14:29:10<br>
Writing application : XezonN@JPS<br>
Video<br>
ID : 1<br>
Format : AVC<br>
Format/Info : Advanced Video Codec<br>
Format profile : High@L4<br>
Format settings, CABAC : Yes<br>
Format settings, RefFrames : 4 frames<br>
Codec ID : avc1<br>
Codec ID/Info : Advanced Video Coding<br>
Duration : 2 h 1 min<br>
Bit rate mode : Variable<br>
Bit rate : 9 884 kb/s<br>
Maximum bit rate : 14.3 Mb/s<br>
Width : 1 920 pixels<br>
Height : 1 080 pixels<br>
Display aspect ratio : 16:9<br>
Frame rate mode : Constant<br>
Frame rate : 29.970 (30000/1001) FPS<br>
Standard : Component<br>
Color space : YUV<br>
Chroma subsampling : 4:2:0<br>
Bit depth : 8 bits<br>
Scan type : Progressive<br>
Bits/(Pixel*Frame) : 0.159<br>
Stream size : 8.37 GiB (97%)<br>
Color range : Limited<br>
Color primaries : BT.709<br>
Transfer characteristics : BT.709<br>
Matrix coefficients : BT.709<br>
Menus : 3,3<br>
Audio<br>
ID : 2<br>
Format : AAC<br>
Format/Info : Advanced Audio Codec<br>
Format profile : LC<br>
Codec ID : 40<br>
Duration : 2 h 1 min<br>
Source duration : 2 h 1 min<br>
Source_Duration_LastFrame : -15 ms<br>
Bit rate mode : Variable<br>
Bit rate : 316 kb/s / 313 kb/s<br>
Channel(s) : 2 channels<br>
Channel positions : Front: L R<br>
Sampling rate : 48.0 kHz<br>
Frame rate : 46.875 FPS (1024 SPF)<br>
Compression mode : Lossy<br>
Stream size : 271 MiB (3%)<br>
Source stream size : 271 MiB (3%)<br>
Language : Japanese<br>
Default : Yes<br>
Alternate group : 1<br>
Menus : 3<br>
Menu #1<br>
00:00:00.000 : --- Intro<br>
00:03:02.182 : --- The Enchanted Garden (VCR)<br>
00:04:42.282 : 01. How You Like That<br>
00:08:07.086 : 02. Pretty Savage<br>
00:11:39.965 : 03. Whistle<br>
00:13:40.820 : --- Talk 1<br>
00:15:57.389 : 04. Don't Know What to Do<br>
00:19:30.102 : 05. Lovesick Girls<br>
00:23:43.422 : --- Monochrome Paradise (VCR)<br>
00:28:33.712 : 06. Kill This Love<br>
00:31:41.900 : 07. Crazy Over You<br>
00:34:38.076 : 08. Stay<br>
00:38:22.300 : --- Talk 2<br>
00:41:22.480 : 09. Tally<br>
00:44:24.995 : 10. Pink Venom<br>
00:48:01.945 : --- YGX dance break<br>
00:51:59.116 : 11. Flower (Pre-recorded)<br>
00:55:15.312 : 12. You and Me<br>
00:59:21.558 : 13. Gone + On The Ground<br>
01:03:29.138 : 14. MONEY<br>
01:06:58.014 : --- Queen's Paradise (VCR)<br>
01:10:34.230 : 15. Shut Down<br>
01:13:51.860 : 16. Typa Girl<br>
01:16:54.209 : --- Talk 3<br>
01:25:36.197 : 17. DDU-DU DDU-DU<br>
01:29:18.119 : 18. Forever Young<br>
01:40:36.830 : 19. Stay<br>
01:44:20.921 : 20. Yeah Yeah Yeah<br>
01:47:21.968 : --- Talk 4<br>
01:51:35.255 : 21. As If It's Your Last<br>
01:57:25.705 : --- Ending Credits<br>
Menu #2<br>
ID : 3<br>
Codec ID : text<br>
Duration : 2 h 1 min<br>
Encoded date : UTC 2023-06-04 14:29:10<br>
Tagged date : UTC 2023-06-04 14:29:10<br>
Menu For : 1,1,2<br>
Bit rate mode : VBR</div>
</div><br>
<br>
<div class="ToggleTriggerAnchor bbCodeSpoilerContainer">
<button type="button" class="button bbCodeSpoilerButton ToggleTrigger Tooltip JsOnly" data-target="> .SpoilerTarget"><span>Spoiler: <span class="SpoilerTitle">FINALE IN SEOUL</span></span></button>
<div class="SpoilerTarget bbCodeSpoilerText">Format : MPEG-4<br>
Format profile : Base Media<br>
Codec ID : isom (isom/iso2/avc1/mp41)<br>
File size : 11.2 GiB<br>
Duration : 4 h 3 min<br>
Overall bit rate mode : Variable<br>
Overall bit rate : 6 572 kb/s<br>
Writing application : Lavf59.25.100<br>
Video<br>
ID : 2<br>
Format : AVC<br>
Format/Info : Advanced Video Codec<br>
Format profile : Main@L4<br>
Format settings, CABAC : Yes<br>
Format settings, RefFrames : 3 frames<br>
Codec ID : avc1<br>
Codec ID/Info : Advanced Video Coding<br>
Duration : 4 h 3 min<br>
Bit rate : 6 367 kb/s<br>
Nominal bit rate : 8 000 kb/s<br>
Width : 1 920 pixels<br>
Height : 1 080 pixels<br>
Display aspect ratio : 16:9<br>
Frame rate mode : Variable<br>
Frame rate : 29.970 (30000/1001) FPS<br>
Minimum frame rate : 29.960 FPS<br>
Maximum frame rate : 29.980 FPS<br>
Color space : YUV<br>
Chroma subsampling : 4:2:0<br>
Bit depth : 8 bits<br>
Scan type : Progressive<br>
Bits/(Pixel*Frame) : 0.102<br>
Stream size : 10.8 GiB (97%)<br>
Writing library : x264 core 155 r2917 0a84d98<br>
Encoding settings : cabac=1 / ref=3 / deblock=1:0:0 / analyse=0x1:0x111 / me=hex / subme=7 / psy=1 / psy_rd=1.00:0.00 / mixed_ref=1 / me_range=16 / chroma_me=1 / trellis=1 / 8x8dct=0 / cqm=0 / deadzone=21,11 / fast_pskip=1 / chroma_qp_offset=-2 / threads=17 / lookahead_threads=16 / sliced_threads=1 / slices=17 / nr=0 / decimate=1 / interlaced=0 / bluray_compat=0 / constrained_intra=0 / bframes=0 / weightp=2 / keyint=150 / keyint_min=76 / scenecut=0 / intra_refresh=0 / rc_lookahead=0 / rc=cbr / mbtree=0 / bitrate=8000 / ratetol=1.0 / qcomp=0.60 / qpmin=0 / qpmax=69 / qpstep=4 / vbv_maxrate=8000 / vbv_bufsize=4800 / nal_hrd=none / filler=0 / ip_ratio=1.40 / aq=1:1.00<br>
Color range : Limited<br>
Color primaries : BT.709<br>
Transfer characteristics : BT.709<br>
Matrix coefficients : BT.709<br>
Audio<br>
ID : 1<br>
Format : AAC<br>
Format/Info : Advanced Audio Codec<br>
Format profile : LC<br>
Codec ID : 40<br>
Duration : 4 h 3 min<br>
Bit rate mode : Variable<br>
Bit rate : 192 kb/s<br>
Maximum bit rate : 199 kb/s / 199 kb/s<br>
Channel(s) : 2 channels<br>
Channel positions : Front: L R<br>
Sampling rate : 48.0 kHz<br>
Frame rate : 46.875 FPS (1024 SPF)<br>
Compression mode : Lossy<br>
Stream size : 334 MiB (3%)<br>
Default : Yes<br>
Alternate group : 1</div>
</div><br>
<br>
<div class="bbCodeBlock bbCodeVfcHH HiddenContent">
<div class="attribution type">Hidden Content:</div>
<blockquote>You must reply before you can see the hidden data contained here.</blockquote>
</div>
<div class="bbCodeBlock bbCodeVfcHH HiddenContent">
<div class="attribution type">Hidden Content:</div>
<blockquote>You must reply before you can see the hidden data contained here.</blockquote>
</div>
<div class="bbCodeBlock bbCodeVfcHH HiddenContent">
<div class="attribution type">Hidden Content:</div>
<blockquote>You must reply before you can see the hidden data contained here.</blockquote>
</div>
<div class="messageTextEndMarker">&nbsp;</div>
</blockquote>
</article>]]></description>
                <author><![CDATA[dangbui06100]]></author>
                </item>

                </channel></rss>